<svg xmlns="http://www.w3.org/2000/svg" viewBox="0 0 1280 800" width="1280" height="800">
  <defs>
    <style>
      @import url('https://fonts.googleapis.com/css2?family=Inter:wght@400;500;600;700;800&amp;display=swap');
      text { font-family: 'Inter', system-ui, -apple-system, sans-serif; }
    </style>
    <!-- Gradiente fondo -->
    <linearGradient id="bgGrad" x1="0" y1="0" x2="0" y2="1">
      <stop offset="0%" stop-color="#0f172a"/>
      <stop offset="100%" stop-color="#080d18"/>
    </linearGradient>
    <!-- Gradiente card accent izquierda -->
    <linearGradient id="blueGrad" x1="0" y1="0" x2="1" y2="1">
      <stop offset="0%" stop-color="#2563eb" stop-opacity="0.25"/>
      <stop offset="100%" stop-color="#2563eb" stop-opacity="0.04"/>
    </linearGradient>
    <linearGradient id="greenGrad" x1="0" y1="0" x2="1" y2="1">
      <stop offset="0%" stop-color="#10b981" stop-opacity="0.25"/>
      <stop offset="100%" stop-color="#10b981" stop-opacity="0.04"/>
    </linearGradient>
    <linearGradient id="amberGrad" x1="0" y1="0" x2="1" y2="1">
      <stop offset="0%" stop-color="#f59e0b" stop-opacity="0.25"/>
      <stop offset="100%" stop-color="#f59e0b" stop-opacity="0.04"/>
    </linearGradient>
    <linearGradient id="purpleGrad" x1="0" y1="0" x2="1" y2="1">
      <stop offset="0%" stop-color="#a855f7" stop-opacity="0.25"/>
      <stop offset="100%" stop-color="#a855f7" stop-opacity="0.04"/>
    </linearGradient>
    <!-- Gradiente chart line -->
    <linearGradient id="chartAreaGrad" x1="0" y1="0" x2="0" y2="1">
      <stop offset="0%" stop-color="#2563eb" stop-opacity="0.35"/>
      <stop offset="100%" stop-color="#2563eb" stop-opacity="0"/>
    </linearGradient>
    <!-- Sombra suave -->
    <filter id="cardShadow" x="-4%" y="-4%" width="108%" height="116%">
      <feDropShadow dx="0" dy="4" stdDeviation="8" flood-color="#000000" flood-opacity="0.3"/>
    </filter>
    <filter id="glowBlue">
      <feDropShadow dx="0" dy="0" stdDeviation="6" flood-color="#2563eb" flood-opacity="0.5"/>
    </filter>
    <!-- Clip para gráfico -->
    <clipPath id="chartClip">
      <rect x="0" y="0" width="390" height="140"/>
    </clipPath>
  </defs>

  <!-- ═══════════════════════════════════════ FONDO ═══════════════════════════════════════ -->
  <rect width="1280" height="800" fill="url(#bgGrad)"/>

  <!-- ══════════════════════════════════════ SIDEBAR ══════════════════════════════════════ -->
  <g id="sidebar">
    <rect x="0" y="0" width="256" height="800" fill="#1e293b" opacity="1"/>
    <rect x="255" y="0" width="1" height="800" fill="#334155"/>

    <!-- Logo -->
    <g transform="translate(24, 28)">
      <rect width="36" height="36" rx="9" fill="#2563eb" filter="url(#glowBlue)"/>
      <!-- Cubo icon -->
      <polygon points="18,6 28,11 28,21 18,26 8,21 8,11" fill="none" stroke="#fff" stroke-width="1.8" stroke-linejoin="round"/>
      <line x1="18" y1="6" x2="18" y2="26" stroke="#fff" stroke-width="1.2" stroke-dasharray="2,1"/>
      <line x1="8" y1="11" x2="28" y2="21" stroke="#fff" stroke-width="1.2" stroke-dasharray="2,1"/>
      <line x1="28" y1="11" x2="8" y2="21" stroke="#fff" stroke-width="1.2" stroke-dasharray="2,1"/>

      <text x="48" y="24" font-size="17" font-weight="700" fill="#f1f5f9" letter-spacing="-0.3">Inventario</text>
    </g>

    <!-- Separador -->
    <line x1="20" y1="80" x2="236" y2="80" stroke="#334155" stroke-width="1"/>

    <!-- NAV ITEMS -->
    <g transform="translate(16, 96)">
      <!-- Dashboard (activo) -->
      <rect width="224" height="40" rx="8" fill="#2563eb" fill-opacity="0.14"/>
      <rect width="3" height="24" rx="1.5" x="0" y="8" fill="#2563eb"/>
      <rect x="14" y="10" width="20" height="20" rx="5" fill="#2563eb" fill-opacity="0.25"/>
      <!-- grid icon -->
      <rect x="17" y="13" width="6" height="6" rx="1" fill="#2563eb"/>
      <rect x="25" y="13" width="6" height="6" rx="1" fill="#2563eb"/>
      <rect x="17" y="21" width="6" height="6" rx="1" fill="#2563eb"/>
      <rect x="25" y="21" width="6" height="6" rx="1" fill="#2563eb"/>
      <text x="42" y="25" font-size="13.5" font-weight="600" fill="#2563eb">Dashboard</text>

      <!-- Productos -->
      <g transform="translate(0, 48)">
        <rect width="224" height="40" rx="8" fill="transparent"/>
        <rect x="14" y="10" width="20" height="20" rx="5" fill="#334155"/>
        <path d="M24 14l-6 3 6 3 6-3-6-3zM18 17v6l6 3M30 17v6l-6 3" stroke="#94a3b8" stroke-width="1.5" stroke-linecap="round" stroke-linejoin="round" fill="none"/>
        <text x="42" y="25" font-size="13.5" font-weight="500" fill="#94a3b8">Productos</text>
      </g>

      <!-- Categorías -->
      <g transform="translate(0, 96)">
        <rect width="224" height="40" rx="8" fill="transparent"/>
        <rect x="14" y="10" width="20" height="20" rx="5" fill="#334155"/>
        <path d="M19 21h-3a2 2 0 01-2-2v-3a2 2 0 012-2h10a2 2 0 012 2v3a2 2 0 01-2 2h-3M15 16V14a2 2 0 012-2h6a2 2 0 012 2v2" stroke="#94a3b8" stroke-width="1.5" stroke-linecap="round" fill="none"/>
        <text x="42" y="25" font-size="13.5" font-weight="500" fill="#94a3b8">Categorías</text>
      </g>

      <!-- Nueva Venta -->
      <g transform="translate(0, 144)">
        <rect width="224" height="40" rx="8" fill="transparent"/>
        <rect x="14" y="10" width="20" height="20" rx="5" fill="#334155"/>
        <path d="M15 14h14l-3 6H18l-3-6zm4 9a1 1 0 100 2 1 1 0 000-2zm6 0a1 1 0 100 2 1 1 0 000-2z" stroke="#94a3b8" stroke-width="1.4" stroke-linecap="round" stroke-linejoin="round" fill="none"/>
        <text x="42" y="25" font-size="13.5" font-weight="500" fill="#94a3b8">Nueva Venta</text>
      </g>

      <!-- Historial -->
      <g transform="translate(0, 192)">
        <rect width="224" height="40" rx="8" fill="transparent"/>
        <rect x="14" y="10" width="20" height="20" rx="5" fill="#334155"/>
        <path d="M21 13h-4a2 2 0 00-2 2v8a2 2 0 002 2h8a2 2 0 002-2v-4M19 18h3M19 22h2" stroke="#94a3b8" stroke-width="1.4" stroke-linecap="round" fill="none"/>
        <text x="42" y="25" font-size="13.5" font-weight="500" fill="#94a3b8">Historial Ventas</text>
      </g>

      <!-- Movimientos -->
      <g transform="translate(0, 240)">
        <rect width="224" height="40" rx="8" fill="transparent"/>
        <rect x="14" y="10" width="20" height="20" rx="5" fill="#334155"/>
        <path d="M19 14v6M19 14l-2 2M19 14l2 2M25 18v6M25 24l-2-2M25 24l2-2" stroke="#94a3b8" stroke-width="1.5" stroke-linecap="round" fill="none"/>
        <text x="42" y="25" font-size="13.5" font-weight="500" fill="#94a3b8">Movimientos</text>
      </g>

      <!-- Reportes -->
      <g transform="translate(0, 288)">
        <rect width="224" height="40" rx="8" fill="transparent"/>
        <rect x="14" y="10" width="20" height="20" rx="5" fill="#334155"/>
        <path d="M16 27v-4M19 27v-7M22 27v-5M25 27v-9" stroke="#94a3b8" stroke-width="1.5" stroke-linecap="round" fill="none"/>
        <text x="42" y="25" font-size="13.5" font-weight="500" fill="#94a3b8">Reportes</text>
      </g>

      <!-- Usuarios -->
      <g transform="translate(0, 336)">
        <rect width="224" height="40" rx="8" fill="transparent"/>
        <rect x="14" y="10" width="20" height="20" rx="5" fill="#334155"/>
        <circle cx="24" cy="17" r="3" stroke="#94a3b8" stroke-width="1.4" fill="none"/>
        <path d="M18 27a6 6 0 0112 0" stroke="#94a3b8" stroke-width="1.4" stroke-linecap="round" fill="none"/>
        <text x="42" y="25" font-size="13.5" font-weight="500" fill="#94a3b8">Usuarios</text>
      </g>
    </g>

    <!-- Separador footer -->
    <line x1="20" y1="718" x2="236" y2="718" stroke="#334155" stroke-width="1"/>

    <!-- Usuario -->
    <g transform="translate(20, 728)">
      <circle cx="20" cy="22" r="20" fill="#2563eb" fill-opacity="0.18"/>
      <text x="20" y="27" font-size="15" font-weight="700" fill="#2563eb" text-anchor="middle">A</text>
      <text x="50" y="18" font-size="13" font-weight="600" fill="#f1f5f9">Administrador</text>
      <text x="50" y="33" font-size="11" fill="#94a3b8">admin@inventario.com</text>
    </g>
  </g>

  <!-- ══════════════════════════════════════ HEADER ══════════════════════════════════════ -->
  <g id="header">
    <rect x="256" y="0" width="1024" height="64" fill="#0f172a"/>
    <rect x="256" y="63" width="1024" height="1" fill="#334155"/>

    <text x="288" y="40" font-size="20" font-weight="700" fill="#f1f5f9" letter-spacing="-0.3">Dashboard</text>

    <!-- Alertas badge -->
    <g transform="translate(960, 16)">
      <rect width="80" height="32" rx="8" fill="#f59e0b" fill-opacity="0.12" stroke="#f59e0b" stroke-opacity="0.35" stroke-width="1"/>
      <circle cx="14" cy="16" r="4" fill="#f59e0b"/>
      <text x="26" y="21" font-size="12" font-weight="600" fill="#f59e0b">4 alertas</text>
    </g>

    <!-- Theme Toggle -->
    <g transform="translate(1060, 18)">
      <rect width="64" height="28" rx="14" fill="#1e293b" stroke="#334155" stroke-width="1"/>
      <circle cx="18" cy="14" r="10" fill="#334155"/>
      <circle cx="18" cy="14" r="5" fill="#94a3b8"/>
      <rect x="34" y="4" width="20" height="20" rx="6" fill="#2563eb" fill-opacity="0.2"/>
      <circle cx="44" cy="14" r="4" fill="#2563eb"/>
      <line x1="44" y1="8" x2="44" y2="6" stroke="#2563eb" stroke-width="1.5" stroke-linecap="round"/>
      <line x1="44" y1="22" x2="44" y2="20" stroke="#2563eb" stroke-width="1.5" stroke-linecap="round"/>
      <line x1="38" y1="14" x2="36" y2="14" stroke="#2563eb" stroke-width="1.5" stroke-linecap="round"/>
    </g>

    <!-- Avatar icono -->
    <g transform="translate(1148, 14)">
      <circle cx="18" cy="18" r="18" fill="#2563eb" fill-opacity="0.18"/>
      <text x="18" y="23" font-size="14" font-weight="700" fill="#2563eb" text-anchor="middle">A</text>
    </g>
  </g>

  <!-- ══════════════════════════════════════ MAIN ══════════════════════════════════════ -->
  <g id="main" transform="translate(256, 64)">

    <!-- ──── STAT CARDS ──── -->
    <g transform="translate(32, 28)">

      <!-- Card: Productos -->
      <g filter="url(#cardShadow)">
        <rect width="222" height="108" rx="14" fill="#1e293b" stroke="#334155" stroke-width="1"/>
        <rect width="222" height="108" rx="14" fill="url(#blueGrad)"/>
        <text x="18" y="34" font-size="12.5" font-weight="500" fill="#94a3b8">Productos Activos</text>
        <text x="18" y="70" font-size="28" font-weight="800" fill="#f1f5f9" letter-spacing="-1">23</text>
        <text x="18" y="90" font-size="11.5" fill="#10b981" font-weight="500">↑ +2 este mes</text>
        <!-- Icono -->
        <rect x="172" y="18" width="36" height="36" rx="9" fill="#2563eb" fill-opacity="0.22"/>
        <polygon points="190,25 197,29 197,37 190,41 183,37 183,29" fill="none" stroke="#2563eb" stroke-width="1.8" stroke-linejoin="round"/>
        <line x1="190" y1="25" x2="190" y2="41" stroke="#2563eb" stroke-width="1" stroke-opacity="0.6"/>
      </g>

      <!-- Card: Stock Bajo -->
      <g transform="translate(238, 0)" filter="url(#cardShadow)">
        <rect width="222" height="108" rx="14" fill="#1e293b" stroke="#334155" stroke-width="1"/>
        <rect width="222" height="108" rx="14" fill="url(#amberGrad)"/>
        <text x="18" y="34" font-size="12.5" font-weight="500" fill="#94a3b8">Alertas Stock Bajo</text>
        <text x="18" y="70" font-size="28" font-weight="800" fill="#f59e0b" letter-spacing="-1">4</text>
        <text x="18" y="90" font-size="11.5" fill="#ef4444" font-weight="500">1 producto agotado</text>
        <!-- Icono -->
        <rect x="172" y="18" width="36" height="36" rx="9" fill="#f59e0b" fill-opacity="0.18"/>
        <path d="M190 27v5M190 36h.1M183 41h14c2 0 3-2 2-3.5l-7-13c-1-1.5-3-1.5-4 0l-7 13c-1 1.5 0 3.5 2 3.5z" stroke="#f59e0b" stroke-width="1.8" stroke-linecap="round" stroke-linejoin="round" fill="none"/>
      </g>

      <!-- Card: Ventas Totales -->
      <g transform="translate(476, 0)" filter="url(#cardShadow)">
        <rect width="222" height="108" rx="14" fill="#1e293b" stroke="#334155" stroke-width="1"/>
        <rect width="222" height="108" rx="14" fill="url(#greenGrad)"/>
        <text x="18" y="34" font-size="12.5" font-weight="500" fill="#94a3b8">Ventas del Mes</text>
        <text x="18" y="68" font-size="22" font-weight="800" fill="#10b981" letter-spacing="-0.5">$125.400</text>
        <text x="18" y="90" font-size="11.5" fill="#10b981" font-weight="500">↑ +18% vs mes anterior</text>
        <!-- Icono -->
        <rect x="172" y="18" width="36" height="36" rx="9" fill="#10b981" fill-opacity="0.18"/>
        <path d="M190 27v1M190 39v1M186 32c0-2 2-3 4-3s4 1 4 2-2 2-4 2-4 1-4 2 2 3 4 3 4-1 4-3" stroke="#10b981" stroke-width="1.8" stroke-linecap="round" fill="none"/>
      </g>

      <!-- Card: Valor Inventario -->
      <g transform="translate(714, 0)" filter="url(#cardShadow)">
        <rect width="222" height="108" rx="14" fill="#1e293b" stroke="#334155" stroke-width="1"/>
        <rect width="222" height="108" rx="14" fill="url(#purpleGrad)"/>
        <text x="18" y="34" font-size="12.5" font-weight="500" fill="#94a3b8">Valor en Inventario</text>
        <text x="18" y="68" font-size="22" font-weight="800" fill="#a855f7" letter-spacing="-0.5">$853.200</text>
        <text x="18" y="90" font-size="11.5" fill="#94a3b8" font-weight="500">Basado en costo</text>
        <!-- Icono -->
        <rect x="172" y="18" width="36" height="36" rx="9" fill="#a855f7" fill-opacity="0.18"/>
        <path d="M183 38v-6M187 38v-10M191 38v-7M195 38v-14" stroke="#a855f7" stroke-width="1.8" stroke-linecap="round" fill="none"/>
      </g>
    </g>

    <!-- ──── PANELS ──── -->
    <g transform="translate(32, 160)">

      <!-- Panel Izquierdo: Stock Bajo -->
      <g filter="url(#cardShadow)">
        <rect width="454" height="540" rx="14" fill="#1e293b" stroke="#334155" stroke-width="1"/>
        <!-- Header -->
        <text x="24" y="42" font-size="15" font-weight="700" fill="#f1f5f9">Alertas de Stock Bajo</text>
        <text x="24" y="62" font-size="12" fill="#94a3b8">Productos que necesitan reabastecimiento</text>
        <line x1="24" y1="80" x2="430" y2="80" stroke="#334155" stroke-width="1"/>

        <!-- Fila 1: Leche (Agotado) -->
        <g transform="translate(20, 94)">
          <rect width="414" height="76" rx="10" fill="#ef4444" fill-opacity="0.07" stroke="#ef4444" stroke-opacity="0.25" stroke-width="1"/>
          <rect width="3" height="76" rx="1.5" fill="#ef4444"/>
          <circle cx="30" cy="38" r="18" fill="#ef4444" fill-opacity="0.15"/>
          <text x="30" y="43" font-size="13" font-weight="700" fill="#ef4444" text-anchor="middle">LEC</text>
          <text x="60" y="32" font-size="13.5" font-weight="600" fill="#f1f5f9">Leche Entera 1L</text>
          <text x="60" y="50" font-size="11.5" fill="#94a3b8">LEC-001 · Alimentos</text>
          <rect x="320" y="20" width="78" height="24" rx="6" fill="#ef4444" fill-opacity="0.18"/>
          <text x="359" y="36" font-size="11" font-weight="700" fill="#ef4444" text-anchor="middle">0 / mín 5</text>
          <text x="359" y="58" font-size="11" fill="#ef4444" text-anchor="middle">● AGOTADO</text>
        </g>

        <!-- Fila 2: Café -->
        <g transform="translate(20, 182)">
          <rect width="414" height="76" rx="10" fill="#f59e0b" fill-opacity="0.06" stroke="#f59e0b" stroke-opacity="0.25" stroke-width="1"/>
          <rect width="3" height="76" rx="1.5" fill="#f59e0b"/>
          <circle cx="30" cy="38" r="18" fill="#f59e0b" fill-opacity="0.15"/>
          <text x="30" y="43" font-size="12" font-weight="700" fill="#f59e0b" text-anchor="middle">CAF</text>
          <text x="60" y="32" font-size="13.5" font-weight="600" fill="#f1f5f9">Café Molido 250g</text>
          <text x="60" y="50" font-size="11.5" fill="#94a3b8">CAF-001 · Alimentos</text>
          <text x="359" y="36" font-size="11" font-weight="700" fill="#f59e0b" text-anchor="middle">4 / mín 10</text>
          <text x="359" y="52" font-size="11" fill="#94a3b8" text-anchor="middle">Stock Bajo</text>
        </g>

        <!-- Fila 3: Cuchillo -->
        <g transform="translate(20, 270)">
          <rect width="414" height="76" rx="10" fill="#ef4444" fill-opacity="0.05" stroke="#ef4444" stroke-opacity="0.2" stroke-width="1"/>
          <rect width="3" height="76" rx="1.5" fill="#ef4444"/>
          <circle cx="30" cy="38" r="18" fill="#ef4444" fill-opacity="0.12"/>
          <text x="30" y="43" font-size="12" font-weight="700" fill="#ef4444" text-anchor="middle">COC</text>
          <text x="60" y="32" font-size="13.5" font-weight="600" fill="#f1f5f9">Cuchillo Chef 8"</text>
          <text x="60" y="50" font-size="11.5" fill="#94a3b8">COC-001 · Hogar</text>
          <text x="359" y="36" font-size="11" font-weight="700" fill="#ef4444" text-anchor="middle">1 / mín 5</text>
          <text x="359" y="52" font-size="11" fill="#94a3b8" text-anchor="middle">Crítico</text>
        </g>

        <!-- Fila 4: Laptop -->
        <g transform="translate(20, 358)">
          <rect width="414" height="76" rx="10" fill="#f59e0b" fill-opacity="0.05" stroke="#f59e0b" stroke-opacity="0.2" stroke-width="1"/>
          <rect width="3" height="76" rx="1.5" fill="#f59e0b"/>
          <circle cx="30" cy="38" r="18" fill="#f59e0b" fill-opacity="0.12"/>
          <text x="30" y="43" font-size="12" font-weight="700" fill="#f59e0b" text-anchor="middle">LAP</text>
          <text x="60" y="32" font-size="13.5" font-weight="600" fill="#f1f5f9">Laptop Pro 15"</text>
          <text x="60" y="50" font-size="11.5" fill="#94a3b8">LAP-001 · Electrónicos</text>
          <text x="359" y="36" font-size="11" font-weight="700" fill="#f59e0b" text-anchor="middle">5 / mín 5</text>
          <text x="359" y="52" font-size="11" fill="#94a3b8" text-anchor="middle">En límite</text>
        </g>

        <!-- Footer -->
        <text x="227" y="508" font-size="12" fill="#94a3b8" text-anchor="middle">Mostrando 4 de 4 alertas activas</text>
      </g>

      <!-- Panel Derecho: Ventas Recientes + mini chart -->
      <g transform="translate(470, 0)" filter="url(#cardShadow)">
        <rect width="490" height="540" rx="14" fill="#1e293b" stroke="#334155" stroke-width="1"/>
        <!-- Header -->
        <text x="24" y="42" font-size="15" font-weight="700" fill="#f1f5f9">Últimas Ventas</text>
        <text x="24" y="62" font-size="12" fill="#94a3b8">Actividad reciente en el POS</text>
        <line x1="24" y1="80" x2="466" y2="80" stroke="#334155" stroke-width="1"/>

        <!-- Mini Sparkline Chart -->
        <g transform="translate(24, 92)" clip-path="url(#chartClip)">
          <rect width="442" height="140" rx="8" fill="#0f172a" fill-opacity="0.5"/>
          <!-- Área relleno -->
          <path d="M0 120 L44 100 L88 112 L132 80 L176 90 L220 55 L264 70 L308 42 L352 52 L396 28 L440 38 L440 140 L0 140 Z" fill="url(#chartAreaGrad)" opacity="0.7"/>
          <!-- Línea -->
          <path d="M0 120 L44 100 L88 112 L132 80 L176 90 L220 55 L264 70 L308 42 L352 52 L396 28 L440 38" fill="none" stroke="#2563eb" stroke-width="2.5" stroke-linecap="round" stroke-linejoin="round"/>
          <!-- Punto activo -->
          <circle cx="440" cy="38" r="5" fill="#2563eb"/>
          <circle cx="440" cy="38" r="9" fill="#2563eb" fill-opacity="0.22"/>
          <!-- Labels eje X -->
          <text x="0" y="138" font-size="10" fill="#64748b">Lun</text>
          <text x="80" y="138" font-size="10" fill="#64748b">Mar</text>
          <text x="162" y="138" font-size="10" fill="#64748b">Mié</text>
          <text x="244" y="138" font-size="10" fill="#64748b">Jue</text>
          <text x="326" y="138" font-size="10" fill="#64748b">Vie</text>
          <text x="408" y="138" font-size="10" fill="#2563eb" font-weight="600">Hoy</text>
          <!-- Tooltip -->
          <rect x="386" y="4" width="56" height="28" rx="6" fill="#2563eb"/>
          <text x="414" y="22" font-size="11" font-weight="700" fill="#fff" text-anchor="middle">$34.998</text>
        </g>

        <!-- Lista Ventas -->
        <g transform="translate(20, 248)">
          <!-- Venta 1 -->
          <g>
            <rect width="450" height="60" rx="10" fill="#0f172a" fill-opacity="0.5"/>
            <circle cx="30" cy="30" r="18" fill="#10b981" fill-opacity="0.14"/>
            <text x="30" y="35" font-size="14" font-weight="700" fill="#10b981" text-anchor="middle">$</text>
            <text x="62" y="24" font-size="13.5" font-weight="600" fill="#f1f5f9">$34.998,00</text>
            <text x="62" y="42" font-size="11.5" fill="#94a3b8">Gerente · Hoy 11:24 · 2 ítems</text>
            <rect x="380" y="16" width="56" height="24" rx="6" fill="#10b981" fill-opacity="0.15"/>
            <text x="408" y="32" font-size="11" font-weight="600" fill="#10b981" text-anchor="middle">✓ Éxito</text>
          </g>

          <!-- Venta 2 -->
          <g transform="translate(0, 70)">
            <rect width="450" height="60" rx="10" fill="#0f172a" fill-opacity="0.5"/>
            <circle cx="30" cy="30" r="18" fill="#10b981" fill-opacity="0.14"/>
            <text x="30" y="35" font-size="14" font-weight="700" fill="#10b981" text-anchor="middle">$</text>
            <text x="62" y="24" font-size="13.5" font-weight="600" fill="#f1f5f9">$2.499,00</text>
            <text x="62" y="42" font-size="11.5" fill="#94a3b8">Empleado · Hoy 10:15 · 1 ítem</text>
            <rect x="380" y="16" width="56" height="24" rx="6" fill="#10b981" fill-opacity="0.15"/>
            <text x="408" y="32" font-size="11" font-weight="600" fill="#10b981" text-anchor="middle">✓ Éxito</text>
          </g>

          <!-- Venta 3 -->
          <g transform="translate(0, 140)">
            <rect width="450" height="60" rx="10" fill="#0f172a" fill-opacity="0.5"/>
            <circle cx="30" cy="30" r="18" fill="#10b981" fill-opacity="0.14"/>
            <text x="30" y="35" font-size="14" font-weight="700" fill="#10b981" text-anchor="middle">$</text>
            <text x="62" y="24" font-size="13.5" font-weight="600" fill="#f1f5f9">$15.898,00</text>
            <text x="62" y="42" font-size="11.5" fill="#94a3b8">Admin · Ayer 18:43 · 3 ítems</text>
            <rect x="380" y="16" width="56" height="24" rx="6" fill="#10b981" fill-opacity="0.15"/>
            <text x="408" y="32" font-size="11" font-weight="600" fill="#10b981" text-anchor="middle">✓ Éxito</text>
          </g>

          <!-- Venta 4 -->
          <g transform="translate(0, 210)">
            <rect width="450" height="60" rx="10" fill="#0f172a" fill-opacity="0.5"/>
            <circle cx="30" cy="30" r="18" fill="#10b981" fill-opacity="0.14"/>
            <text x="30" y="35" font-size="14" font-weight="700" fill="#10b981" text-anchor="middle">$</text>
            <text x="62" y="24" font-size="13.5" font-weight="600" fill="#f1f5f9">$899,00</text>
            <text x="62" y="42" font-size="11.5" fill="#94a3b8">Empleado · Ayer 15:10 · 1 ítem</text>
            <rect x="380" y="16" width="56" height="24" rx="6" fill="#10b981" fill-opacity="0.15"/>
            <text x="408" y="32" font-size="11" font-weight="600" fill="#10b981" text-anchor="middle">✓ Éxito</text>
          </g>
        </g>

        <!-- Footer -->
        <text x="245" y="508" font-size="12" fill="#94a3b8" text-anchor="middle">Mostrando las 4 ventas más recientes</text>
      </g>
    </g>

    <!-- ──── Footer branding ──── -->
    <text x="512" y="716" font-size="12" fill="#475569" text-anchor="middle">Desarrollado con ♥ por GUARNIERI NETWORK · Inventario PWA · Next.js 16 + PostgreSQL</text>
  </g>
</svg>
